<?xml version="1.0" encoding="utf-8"?>
<!-- Generator: Adobe Illustrator 21.1.0, SVG Export Plug-In . SVG Version: 6.00 Build 0)  -->
<svg version="1.1" id="レイヤー_1" xmlns="http://www.w3.org/2000/svg" xmlns:xlink="http://www.w3.org/1999/xlink" x="0px"
	 y="0px" viewBox="0 0 400 252" enable-background="new 0 0 400 252" xml:space="preserve">
<g>
	<g>
		<path fill="#231815" d="M392,0H8C3.6,0,0,3.6,0,8v236c0,4.4,3.6,8,8,8H392c4.4,0,8-3.6,8-8V8C400,3.6,396.4,0,392,0L392,0z"/>
		<path fill="#FFFFFF" d="M391,244.5H9c-0.8,0-1.4-0.6-1.4-1.4V8.9c0-0.8,0.6-1.4,1.4-1.4h382c0.8,0,1.4,0.6,1.4,1.4v234.1
			C392.4,243.8,391.8,244.5,391,244.5z"/>
	</g>
	<g>
		<path fill="#231815" d="M89.4,173.6c3.1,0,6.6-0.5,10.1-1.3c0.2-0.1,0.3-0.1,0.4-0.1c0.2,0,0.3,0.2,0.4,0.5
			c0.1,0.8,0.2,2.1,0.2,3.3c0,0.8-0.1,1-0.4,1.1c-1.2,0.6-6.3,1.2-10.8,1.2c-5.8,0-9.1-1-11.7-3.4c-1.3-1.2-2.5-3.2-2.5-4.1
			c0-0.5,0.3-0.8,3-2.3c0.2-0.1,0.6,0,0.7,0.2C80.2,172.1,83.4,173.6,89.4,173.6z M89.7,151.7c2.2,0,3.5-0.1,6.1-0.5
			c0.1,0,0.2,0,0.3,0c0.3,0,0.4,0.1,0.5,0.3c0.1,0.5,0.2,1.6,0.2,3c0,0.9-0.1,1.2-0.3,1.3c-0.3,0.2-3.6,0.4-6.2,0.4
			c-3.4,0-6.3-0.3-9.4-0.9c-2.2-0.4-2.3-0.5-2.3-1.9c0-0.7,0.1-1.8,0.1-2.8c0-0.3,0.3-0.5,0.6-0.4C82.5,151.2,85.9,151.7,89.7,151.7
			z M101,153.6c-0.2,0-0.3-0.1-0.4-0.3c-1-1.6-1.7-2.5-3-3.9c-0.1-0.1-0.2-0.2-0.2-0.3c0-0.3,1.5-1.5,2-1.5c0.3,0,0.7,0.3,1.7,1.4
			c1.2,1.3,2.1,2.5,2.1,2.8C103.2,152.2,101.5,153.6,101,153.6z M104.9,146.5c1.2,1.3,2,2.4,2,2.7c0,0.2-0.1,0.3-0.7,0.8
			c-0.8,0.6-1.2,0.8-1.4,0.8c-0.1,0-0.2-0.1-0.4-0.4c-1.2-1.7-1.8-2.5-3-3.6c-0.1-0.1-0.2-0.2-0.2-0.3c0-0.3,1.5-1.4,2-1.4
			C103.6,145.2,104.1,145.6,104.9,146.5z"/>
		<path fill="#231815" d="M133.9,156.4c-2.1,0-2.1,0-2.4-0.5c-0.2-0.3-0.4-1.6-0.6-3.1c0-0.3,0.2-0.5,0.5-0.5
			c1.2,0.1,2.5,0.2,4.1,0.2c1.1,0,2.6,0,4.2-0.2c0.3-2.3,0.4-3.1,0.4-4.5c0-0.6,0-1.1-0.1-1.9c0,0,0-0.1,0-0.1c0,0,0.1,0,0.1,0
			c1.9,0.1,3.9,0.5,4.8,0.8c0.3,0.1,0.4,0.2,0.4,0.5c0,0.2,0,0.4-0.3,0.8c-0.3,0.8-0.5,1.4-0.7,2.6c-0.1,0.7-0.2,0.9-0.2,1.4
			c3.1-0.4,6.3-1.1,8.5-1.9c0.3-0.1,0.5-0.1,0.6-0.1c0.3,0,0.4,0.2,0.5,1c0.2,0.8,0.3,2.4,0.3,2.8c0,0.5-0.2,0.5-1.3,0.8
			c-3,0.6-6.8,1.2-9.5,1.4c-1.2,4.6-1.7,6-3.1,8.6c2.1-1.7,3.3-2.3,5.1-3c1.6-0.6,3.3-0.9,5-0.9c2.8,0,5.1,0.8,6.5,2.2
			c1.3,1.3,2.1,3.3,2.1,5.4c0,2.8-1.3,5.1-4.2,7c-2.1,1.4-5.6,2.7-9.1,3.1c-0.6,0.1-1.2,0.2-1.5,0.2c-0.6,0-0.8-0.2-1.1-0.6
			c-0.5-1-1-1.7-1.6-2.4c-0.3-0.3-0.1-0.8,0.3-0.8c3.1-0.2,5.5-0.7,8-1.6c3.6-1.3,5.3-3.6,4.3-6.2c-0.7-1.7-2.4-2.7-4.3-2.7
			c-4.2,0.1-8.9,2.8-11.9,6.7c-0.2,0.3-0.5,0.4-0.7,0.4c-0.7,0-3.3-2.4-3.3-3c0-0.2,0-0.3,0.4-0.8c2-2.7,3.6-6.6,4.7-11.3
			C138.4,156.3,134.3,156.4,133.9,156.4z"/>
		<path fill="#231815" d="M213.5,161.4c-1.8,0-4.6,0.6-6.5,1.3c-4.1,1.6-6.8,4.4-6.8,7.2c0,1.7,1.2,2.9,3.5,3.5
			c1,0.3,2.8,0.5,4.1,0.4c0.2,0,0.3,0,0.4,0c0.7,0,0.9,0.2,0.9,0.7c0,1.3-0.2,3-0.4,3.5c-0.2,0.3-0.3,0.4-0.7,0.4
			c-2.3,0-5.3-0.6-7.3-1.5c-3-1.3-4.6-3.5-4.6-6.3c0-1.8,0.7-3.6,2-5.2c0.7-0.9,1.3-1.4,2.7-2.4c-7,2.1-10.5,3.4-12.8,4.9
			c-0.3,0.2-0.5,0.3-0.7,0.3c-0.4,0-0.8-0.3-1.3-1.3c-0.5-0.9-0.9-1.9-0.9-2.5c0-0.3,0.2-0.5,1.1-0.7c0.9-0.3,1.5-0.6,3-1.7
			c1.8-1.3,4.5-3.7,6.9-5.9c2-1.9,3.1-3,5.4-5.7c-2.2,0.3-8.2,1.3-9.1,1.5c-0.5,0.2-0.6,0.2-0.7,0.2c-0.3,0-0.5-0.2-0.7-0.5
			c-0.3-0.8-0.6-2.1-0.7-3.5c0-0.2,0.2-0.3,0.3-0.3c0.4,0,0.6,0,0.9,0c1.7,0,5.4-0.3,10.1-0.9c1.7-0.2,2.7-0.4,3.4-0.8
			c0.5-0.2,0.5-0.3,0.8-0.3c0.5,0,1.1,0.5,2.1,1.8c0.8,0.9,1,1.3,1,1.7c0,0.4-0.2,0.6-0.7,1c-0.7,0.4-0.7,0.4-3.9,3.4
			c-2.6,2.4-5.8,5.1-9.3,7.9c5.4-1.6,8.2-2.4,14.1-3.7c1.3-0.3,2.6-0.6,4-1.1c0.2-0.1,0.3-0.1,0.5-0.1c0.3,0,0.5,0.2,0.7,0.5
			c0.4,0.9,0.9,2.7,0.9,3.4c0,0.5-0.2,0.8-0.6,0.8H213.5z"/>
		<path fill="#231815" d="M250.8,155.8c2.5-0.6,4.1-0.9,5.9-0.9c5.4,0,8.6,3.2,8.6,8.7c0,4.8-2.1,8.6-6.3,11.6
			c-2.2,1.6-5.6,3.3-6.7,3.3c-0.5,0-0.6-0.1-1.4-1.3c-0.5-0.7-0.9-1.2-1.6-1.7c-0.3-0.2-0.2-0.5-0.1-0.5c4.1-1.4,5.9-2.3,7.8-4
			c2.3-2,3.5-4.4,3.5-7.3c0-3.1-1.5-4.8-4-4.8c-2.1,0-4.8,0.8-8.2,2.5c-0.5,0.2-0.8,0.4-1.4,0.9c-0.2,0.1-0.3,0.2-0.5,0.2
			c-0.7,0-1.8-1.9-2.6-4.4c-0.1-0.3,0.1-0.6,0.4-0.6C245.3,157.2,246.5,156.9,250.8,155.8z M253.4,146.6c1.4,0.4,3.5,0.8,5.3,1
			c0.8,0.1,1,0.1,3,0.2c0.6,0,0.7,0.2,0.7,0.6c0,1.3-0.3,3.3-0.5,3.7c-0.1,0.2-0.3,0.3-0.5,0.3c-0.9,0-4-0.4-5.8-0.8
			c-3-0.6-5.7-1.4-6.2-1.8c-0.1-0.1-0.2-0.3-0.2-0.4c0-0.3,0.8-2.4,1.2-3.1c0.2-0.3,0.3-0.4,0.5-0.4
			C251.1,145.9,251.1,145.9,253.4,146.6z"/>
		<path fill="#231815" d="M301.3,157.4c-2.5,1.5-3.3,2-5.9,3.2c-0.6-1.3-1.1-2.2-1.8-3.3c-0.2-0.3-0.1-0.6,0.2-0.7
			c3.6-1.4,6.1-2.8,8.7-4.8c2.5-1.9,4.3-3.8,5.8-6.2h4.3c2,2.7,3.5,4.1,6.3,6.1c2.9,2.1,5.8,3.6,8.9,4.7c0.3,0.1,0.4,0.4,0.2,0.7
			c-0.7,1.1-1.2,2-1.6,3.1c-0.1,0.3-0.4,0.4-0.6,0.3c-2-0.9-3.4-1.7-5.8-3.1v2.3c0,0.3-0.2,0.5-0.5,0.5c-0.8-0.1-1.6-0.1-2.8-0.1
			h-12.3c-0.9,0-1.8,0-2.6,0.1c-0.3,0-0.5-0.2-0.5-0.5V157.4z M299.3,166.8c-1.6,0-2.8,0.1-3.8,0.2c-0.3,0-0.5-0.2-0.5-0.5v-3.2
			c0-0.3,0.2-0.5,0.5-0.5c1.1,0.1,2.3,0.1,3.8,0.1h22.9c1.6,0,2.7-0.1,3.8-0.1c0.3,0,0.5,0.2,0.5,0.5v3.2c0,0.3-0.2,0.5-0.5,0.5
			c-1.1-0.1-2.2-0.2-3.8-0.2h-12.6c-1.2,2.8-2.4,4.9-3.8,7.1c6.4-0.3,6.4-0.3,11.7-0.9c-1.1-1.2-1.7-1.9-3.4-3.5
			c-0.2-0.2-0.2-0.6,0.1-0.8l2.7-1.2c0.2-0.1,0.4,0,0.5,0.1c3.6,3.6,5.3,5.5,8,9c0.2,0.2,0.1,0.5-0.1,0.7l-2.7,1.8
			c-0.2,0.1-0.5,0.1-0.7-0.1c-0.8-1.2-1.2-1.7-1.9-2.8c-3.1,0.4-5.3,0.6-6.6,0.8c-3.8,0.4-10.8,1-12.4,1.1c-1.7,0.1-3.3,0.2-4.3,0.4
			c-0.3,0-0.5-0.1-0.5-0.4c0,0-0.4-3.1-0.4-3.4c-0.1-0.4,0.2-0.5,0.4-0.5c0.8,0.1,1.2,0.1,1.6,0.1c0.3,0,1.4,0,3.3-0.2
			c1.8-2.7,3-4.9,3.9-7.3H299.3z M316.7,156.2c0.5,0,0.8,0,1.6,0c-3.3-2.2-5.5-4.2-7.7-7.1c-1.9,2.6-4.1,4.7-7.6,7.1
			c0.6,0,0.9,0,1.5,0H316.7z"/>
	</g>
	<g>
		<g>
			<path fill="#231815" d="M310.5,77.6l3.6,10.9h11.5c0.3,0,0.4,0.4,0.2,0.5l-9.3,6.7l3.6,10.9c0.1,0.3-0.2,0.5-0.5,0.3l-9.3-6.7
				l-9.3,6.7c-0.2,0.2-0.5-0.1-0.5-0.3l3.6-10.9l-9.3-6.7c-0.2-0.2-0.1-0.5,0.2-0.5h11.5l3.6-10.9C310,77.3,310.4,77.3,310.5,77.6z"
				/>
		</g>
		<g>
			<path fill="#231815" d="M255.4,77.6l3.6,10.9h11.5c0.3,0,0.4,0.4,0.2,0.5l-9.3,6.7l3.6,10.9c0.1,0.3-0.2,0.5-0.5,0.3l-9.3-6.7
				l-9.3,6.7c-0.2,0.2-0.5-0.1-0.5-0.3l3.6-10.9l-9.3-6.7c-0.2-0.2-0.1-0.5,0.2-0.5h11.5l3.6-10.9C254.9,77.3,255.3,77.3,255.4,77.6
				z"/>
		</g>
		<g>
			<path fill="#231815" d="M200.3,77.6l3.6,10.9h11.5c0.3,0,0.4,0.4,0.2,0.5l-9.3,6.7l3.6,10.9c0.1,0.3-0.2,0.5-0.5,0.3l-9.3-6.7
				l-9.3,6.7c-0.2,0.2-0.5-0.1-0.5-0.3l3.6-10.9l-9.3-6.7c-0.2-0.2-0.1-0.5,0.2-0.5h11.5l3.6-10.9C199.8,77.3,200.2,77.3,200.3,77.6
				z"/>
		</g>
		<g>
			<path fill="#231815" d="M145.2,77.6l3.6,10.9h11.5c0.3,0,0.4,0.4,0.2,0.5l-9.3,6.7l3.6,10.9c0.1,0.3-0.2,0.5-0.5,0.3l-9.3-6.7
				l-9.3,6.7c-0.2,0.2-0.5-0.1-0.5-0.3l3.6-10.9l-9.3-6.7c-0.2-0.2-0.1-0.5,0.2-0.5h11.5l3.6-10.9C144.7,77.3,145.1,77.3,145.2,77.6
				z"/>
		</g>
		<g>
			<path fill="#231815" d="M90.1,77.6l3.6,10.9h11.5c0.3,0,0.4,0.4,0.2,0.5L96,95.8l3.6,10.9c0.1,0.3-0.2,0.5-0.5,0.3l-9.3-6.7
				l-9.3,6.7c-0.2,0.2-0.5-0.1-0.5-0.3l3.6-10.9L74.3,89c-0.2-0.2-0.1-0.5,0.2-0.5H86l3.6-10.9C89.6,77.3,90,77.3,90.1,77.6z"/>
		</g>
	</g>
</g>
</svg>
