<?xml version="1.0" encoding="utf-8"?>
<!-- Generator: Adobe Illustrator 23.0.4, SVG Export Plug-In . SVG Version: 6.00 Build 0)  -->
<svg version="1.1" id="レイヤー_1" xmlns="http://www.w3.org/2000/svg" xmlns:xlink="http://www.w3.org/1999/xlink" x="0px"
	 y="0px" viewBox="0 0 417 269" style="enable-background:new 0 0 417 269;" xml:space="preserve">
<style type="text/css">
	.st0{fill:#FFFFFF;}
	.st1{fill:#231815;}
</style>
<path class="st0" d="M409.6,269H7.4c-4.1,0-7.4-3.3-7.4-7.4V7.4C0,3.3,3.3,0,7.4,0h402.2c4.1,0,7.4,3.3,7.4,7.4v254.2
	C417,265.7,413.7,269,409.6,269z"/>
<g>
	<g>
		<path class="st1" d="M400.5,8.5h-384c-4.4,0-8,3.6-8,8v236c0,4.4,3.6,8,8,8h384c4.4,0,8-3.6,8-8v-236
			C408.5,12.1,404.9,8.5,400.5,8.5L400.5,8.5z"/>
		<path class="st0" d="M399.5,253h-382c-0.8,0-1.4-0.6-1.4-1.4V17.4c0-0.8,0.6-1.4,1.4-1.4h382c0.8,0,1.4,0.6,1.4,1.4v234.1
			C400.9,252.3,400.3,253,399.5,253z"/>
	</g>
	<g>
		<path class="st1" d="M97.9,182.1c3.1,0,6.6-0.5,10.1-1.3c0.2-0.1,0.3-0.1,0.4-0.1c0.2,0,0.3,0.2,0.4,0.5c0.1,0.8,0.2,2.1,0.2,3.3
			c0,0.8-0.1,1-0.4,1.1c-1.2,0.6-6.3,1.2-10.8,1.2c-5.8,0-9.1-1-11.7-3.4c-1.3-1.2-2.5-3.2-2.5-4.1c0-0.5,0.3-0.8,3-2.3
			c0.2-0.1,0.6,0,0.7,0.2C88.7,180.6,91.9,182.1,97.9,182.1z M98.2,160.2c2.2,0,3.5-0.1,6.1-0.5c0.1,0,0.2,0,0.3,0
			c0.3,0,0.4,0.1,0.5,0.3c0.1,0.5,0.2,1.6,0.2,3c0,0.9-0.1,1.2-0.3,1.3c-0.3,0.2-3.6,0.4-6.2,0.4c-3.4,0-6.3-0.3-9.4-0.9
			c-2.2-0.4-2.3-0.5-2.3-1.9c0-0.7,0.1-1.8,0.1-2.8c0-0.3,0.3-0.5,0.6-0.4C91,159.7,94.4,160.2,98.2,160.2z M109.5,162.1
			c-0.2,0-0.3-0.1-0.4-0.3c-1-1.6-1.7-2.5-3-3.9c-0.1-0.1-0.2-0.2-0.2-0.3c0-0.3,1.5-1.5,2-1.5c0.3,0,0.7,0.3,1.7,1.4
			c1.2,1.3,2.1,2.5,2.1,2.8C111.7,160.7,110,162.1,109.5,162.1z M113.4,155c1.2,1.3,2,2.4,2,2.7c0,0.2-0.1,0.3-0.7,0.8
			c-0.8,0.6-1.2,0.8-1.4,0.8c-0.1,0-0.2-0.1-0.4-0.4c-1.2-1.7-1.8-2.5-3-3.6c-0.1-0.1-0.2-0.2-0.2-0.3c0-0.3,1.5-1.4,2-1.4
			C112.1,153.7,112.6,154.1,113.4,155z"/>
		<path class="st1" d="M142.4,164.9c-2.1,0-2.1,0-2.4-0.5c-0.2-0.3-0.4-1.6-0.6-3.1c0-0.3,0.2-0.5,0.5-0.5c1.2,0.1,2.5,0.2,4.1,0.2
			c1.1,0,2.6,0,4.2-0.2c0.3-2.3,0.4-3.1,0.4-4.5c0-0.6,0-1.1-0.1-1.9v-0.1h0.1c1.9,0.1,3.9,0.5,4.8,0.8c0.3,0.1,0.4,0.2,0.4,0.5
			c0,0.2,0,0.4-0.3,0.8c-0.3,0.8-0.5,1.4-0.7,2.6c-0.1,0.7-0.2,0.9-0.2,1.4c3.1-0.4,6.3-1.1,8.5-1.9c0.3-0.1,0.5-0.1,0.6-0.1
			c0.3,0,0.4,0.2,0.5,1c0.2,0.8,0.3,2.4,0.3,2.8c0,0.5-0.2,0.5-1.3,0.8c-3,0.6-6.8,1.2-9.5,1.4c-1.2,4.6-1.7,6-3.1,8.6
			c2.1-1.7,3.3-2.3,5.1-3c1.6-0.6,3.3-0.9,5-0.9c2.8,0,5.1,0.8,6.5,2.2c1.3,1.3,2.1,3.3,2.1,5.4c0,2.8-1.3,5.1-4.2,7
			c-2.1,1.4-5.6,2.7-9.1,3.1c-0.6,0.1-1.2,0.2-1.5,0.2c-0.6,0-0.8-0.2-1.1-0.6c-0.5-1-1-1.7-1.6-2.4c-0.3-0.3-0.1-0.8,0.3-0.8
			c3.1-0.2,5.5-0.7,8-1.6c3.6-1.3,5.3-3.6,4.3-6.2c-0.7-1.7-2.4-2.7-4.3-2.7c-4.2,0.1-8.9,2.8-11.9,6.7c-0.2,0.3-0.5,0.4-0.7,0.4
			c-0.7,0-3.3-2.4-3.3-3c0-0.2,0-0.3,0.4-0.8c2-2.7,3.6-6.6,4.7-11.3C146.9,164.8,142.8,164.9,142.4,164.9z"/>
		<path class="st1" d="M222,169.9c-1.8,0-4.6,0.6-6.5,1.3c-4.1,1.6-6.8,4.4-6.8,7.2c0,1.7,1.2,2.9,3.5,3.5c1,0.3,2.8,0.5,4.1,0.4
			c0.2,0,0.3,0,0.4,0c0.7,0,0.9,0.2,0.9,0.7c0,1.3-0.2,3-0.4,3.5c-0.2,0.3-0.3,0.4-0.7,0.4c-2.3,0-5.3-0.6-7.3-1.5
			c-3-1.3-4.6-3.5-4.6-6.3c0-1.8,0.7-3.6,2-5.2c0.7-0.9,1.3-1.4,2.7-2.4c-7,2.1-10.5,3.4-12.8,4.9c-0.3,0.2-0.5,0.3-0.7,0.3
			c-0.4,0-0.8-0.3-1.3-1.3c-0.5-0.9-0.9-1.9-0.9-2.5c0-0.3,0.2-0.5,1.1-0.7c0.9-0.3,1.5-0.6,3-1.7c1.8-1.3,4.5-3.7,6.9-5.9
			c2-1.9,3.1-3,5.4-5.7c-2.2,0.3-8.2,1.3-9.1,1.5c-0.5,0.2-0.6,0.2-0.7,0.2c-0.3,0-0.5-0.2-0.7-0.5c-0.3-0.8-0.6-2.1-0.7-3.5
			c0-0.2,0.2-0.3,0.3-0.3c0.4,0,0.6,0,0.9,0c1.7,0,5.4-0.3,10.1-0.9c1.7-0.2,2.7-0.4,3.4-0.8c0.5-0.2,0.5-0.3,0.8-0.3
			c0.5,0,1.1,0.5,2.1,1.8c0.8,0.9,1,1.3,1,1.7s-0.2,0.6-0.7,1c-0.7,0.4-0.7,0.4-3.9,3.4c-2.6,2.4-5.8,5.1-9.3,7.9
			c5.4-1.6,8.2-2.4,14.1-3.7c1.3-0.3,2.6-0.6,4-1.1c0.2-0.1,0.3-0.1,0.5-0.1c0.3,0,0.5,0.2,0.7,0.5c0.4,0.9,0.9,2.7,0.9,3.4
			c0,0.5-0.2,0.8-0.6,0.8L222,169.9L222,169.9z"/>
		<path class="st1" d="M259.3,164.3c2.5-0.6,4.1-0.9,5.9-0.9c5.4,0,8.6,3.2,8.6,8.7c0,4.8-2.1,8.6-6.3,11.6
			c-2.2,1.6-5.6,3.3-6.7,3.3c-0.5,0-0.6-0.1-1.4-1.3c-0.5-0.7-0.9-1.2-1.6-1.7c-0.3-0.2-0.2-0.5-0.1-0.5c4.1-1.4,5.9-2.3,7.8-4
			c2.3-2,3.5-4.4,3.5-7.3c0-3.1-1.5-4.8-4-4.8c-2.1,0-4.8,0.8-8.2,2.5c-0.5,0.2-0.8,0.4-1.4,0.9c-0.2,0.1-0.3,0.2-0.5,0.2
			c-0.7,0-1.8-1.9-2.6-4.4c-0.1-0.3,0.1-0.6,0.4-0.6C253.8,165.7,255,165.4,259.3,164.3z M261.9,155.1c1.4,0.4,3.5,0.8,5.3,1
			c0.8,0.1,1,0.1,3,0.2c0.6,0,0.7,0.2,0.7,0.6c0,1.3-0.3,3.3-0.5,3.7c-0.1,0.2-0.3,0.3-0.5,0.3c-0.9,0-4-0.4-5.8-0.8
			c-3-0.6-5.7-1.4-6.2-1.8c-0.1-0.1-0.2-0.3-0.2-0.4c0-0.3,0.8-2.4,1.2-3.1c0.2-0.3,0.3-0.4,0.5-0.4
			C259.6,154.4,259.6,154.4,261.9,155.1z"/>
		<path class="st1" d="M309.8,165.9c-2.5,1.5-3.3,2-5.9,3.2c-0.6-1.3-1.1-2.2-1.8-3.3c-0.2-0.3-0.1-0.6,0.2-0.7
			c3.6-1.4,6.1-2.8,8.7-4.8c2.5-1.9,4.3-3.8,5.8-6.2h4.3c2,2.7,3.5,4.1,6.3,6.1c2.9,2.1,5.8,3.6,8.9,4.7c0.3,0.1,0.4,0.4,0.2,0.7
			c-0.7,1.1-1.2,2-1.6,3.1c-0.1,0.3-0.4,0.4-0.6,0.3c-2-0.9-3.4-1.7-5.8-3.1v2.3c0,0.3-0.2,0.5-0.5,0.5c-0.8-0.1-1.6-0.1-2.8-0.1
			h-12.3c-0.9,0-1.8,0-2.6,0.1c-0.3,0-0.5-0.2-0.5-0.5L309.8,165.9L309.8,165.9z M307.8,175.3c-1.6,0-2.8,0.1-3.8,0.2
			c-0.3,0-0.5-0.2-0.5-0.5v-3.2c0-0.3,0.2-0.5,0.5-0.5c1.1,0.1,2.3,0.1,3.8,0.1h22.9c1.6,0,2.7-0.1,3.8-0.1c0.3,0,0.5,0.2,0.5,0.5
			v3.2c0,0.3-0.2,0.5-0.5,0.5c-1.1-0.1-2.2-0.2-3.8-0.2h-12.6c-1.2,2.8-2.4,4.9-3.8,7.1c6.4-0.3,6.4-0.3,11.7-0.9
			c-1.1-1.2-1.7-1.9-3.4-3.5c-0.2-0.2-0.2-0.6,0.1-0.8l2.7-1.2c0.2-0.1,0.4,0,0.5,0.1c3.6,3.6,5.3,5.5,8,9c0.2,0.2,0.1,0.5-0.1,0.7
			l-2.7,1.8c-0.2,0.1-0.5,0.1-0.7-0.1c-0.8-1.2-1.2-1.7-1.9-2.8c-3.1,0.4-5.3,0.6-6.6,0.8c-3.8,0.4-10.8,1-12.4,1.1
			c-1.7,0.1-3.3,0.2-4.3,0.4c-0.3,0-0.5-0.1-0.5-0.4c0,0-0.4-3.1-0.4-3.4c-0.1-0.4,0.2-0.5,0.4-0.5c0.8,0.1,1.2,0.1,1.6,0.1
			c0.3,0,1.4,0,3.3-0.2c1.8-2.7,3-4.9,3.9-7.3L307.8,175.3L307.8,175.3z M325.2,164.7c0.5,0,0.8,0,1.6,0c-3.3-2.2-5.5-4.2-7.7-7.1
			c-1.9,2.6-4.1,4.7-7.6,7.1c0.6,0,0.9,0,1.5,0H325.2z"/>
	</g>
	<g>
		<g>
			<path class="st1" d="M319,86.1l3.6,10.9h11.5c0.3,0,0.4,0.4,0.2,0.5l-9.3,6.7l3.6,10.9c0.1,0.3-0.2,0.5-0.5,0.3l-9.3-6.7
				l-9.3,6.7c-0.2,0.2-0.5-0.1-0.5-0.3l3.6-10.9l-9.3-6.7c-0.2-0.2-0.1-0.5,0.2-0.5H315l3.6-10.9C318.5,85.8,318.9,85.8,319,86.1z"
				/>
		</g>
		<g>
			<path class="st1" d="M263.9,86.1l3.6,10.9H279c0.3,0,0.4,0.4,0.2,0.5l-9.3,6.7l3.6,10.9c0.1,0.3-0.2,0.5-0.5,0.3l-9.3-6.7
				l-9.3,6.7c-0.2,0.2-0.5-0.1-0.5-0.3l3.6-10.9l-9.3-6.7c-0.2-0.2-0.1-0.5,0.2-0.5h11.5l3.6-10.9C263.4,85.8,263.8,85.8,263.9,86.1
				z"/>
		</g>
		<g>
			<path class="st1" d="M208.8,86.1l3.6,10.9h11.5c0.3,0,0.4,0.4,0.2,0.5l-9.3,6.7l3.6,10.9c0.1,0.3-0.2,0.5-0.5,0.3l-9.3-6.7
				l-9.3,6.7c-0.2,0.2-0.5-0.1-0.5-0.3l3.6-10.9l-9.3-6.7c-0.2-0.2-0.1-0.5,0.2-0.5h11.5l3.6-10.9C208.3,85.8,208.7,85.8,208.8,86.1
				z"/>
		</g>
		<g>
			<path class="st1" d="M153.7,86.1l3.6,10.9h11.5c0.3,0,0.4,0.4,0.2,0.5l-9.3,6.7l3.6,10.9c0.1,0.3-0.2,0.5-0.5,0.3l-9.3-6.7
				l-9.3,6.7c-0.2,0.2-0.5-0.1-0.5-0.3l3.6-10.9l-9.3-6.7c-0.2-0.2-0.1-0.5,0.2-0.5h11.5l3.6-10.9C153.2,85.8,153.6,85.8,153.7,86.1
				z"/>
		</g>
		<g>
			<path class="st1" d="M98.6,86.1l3.6,10.9h11.5c0.3,0,0.4,0.4,0.2,0.5l-9.4,6.8l3.6,10.9c0.1,0.3-0.2,0.5-0.5,0.3l-9.3-6.7
				l-9.3,6.7c-0.2,0.2-0.5-0.1-0.5-0.3l3.6-10.9l-9.3-6.8C82.6,97.3,82.7,97,83,97h11.5l3.6-10.9C98.1,85.8,98.5,85.8,98.6,86.1z"/>
		</g>
	</g>
</g>
</svg>
