<?xml version="1.0" encoding="utf-8"?>
<!-- Generator: Adobe Illustrator 23.0.4, SVG Export Plug-In . SVG Version: 6.00 Build 0)  -->
<svg version="1.1" id="レイヤー_1" xmlns="http://www.w3.org/2000/svg" xmlns:xlink="http://www.w3.org/1999/xlink" x="0px"
	 y="0px" viewBox="0 0 439.7 291.7" style="enable-background:new 0 0 439.7 291.7;" xml:space="preserve">
<style type="text/css">
	.st0{fill:#FFFFFF;}
	.st1{fill:#C3C4C4;}
	.st2{fill:#231815;}
</style>
<g>
	<path class="st0" d="M7.5,289.7c-3.1,0-5.5-2.6-5.5-5.8V7.8C2,4.6,4.5,2,7.5,2h424.6c3.1,0,5.5,2.6,5.5,5.8v276.2
		c0,3.2-2.5,5.8-5.5,5.8H7.5z"/>
	<path class="st1" d="M432.1,4c2,0,3.5,1.7,3.5,3.8v276.2c0,2.1-1.6,3.8-3.5,3.8H7.5c-2,0-3.5-1.7-3.5-3.8V7.8C4,5.7,5.6,4,7.5,4
		H432.1 M432.1,0H7.5C3.4,0,0,3.5,0,7.8v276.2c0,4.3,3.4,7.8,7.5,7.8h424.6c4.2,0,7.5-3.5,7.5-7.8V7.8C439.7,3.5,436.3,0,432.1,0
		L432.1,0z"/>
</g>
<g>
	<g>
		<path class="st2" d="M411.8,19.8h-384c-4.4,0-8,3.6-8,8v236c0,4.4,3.6,8,8,8h384c4.4,0,8-3.6,8-8v-236
			C419.8,23.4,416.2,19.8,411.8,19.8L411.8,19.8z"/>
		<path class="st0" d="M410.8,264.3h-382c-0.8,0-1.4-0.6-1.4-1.4V28.7c0-0.8,0.6-1.4,1.4-1.4h382c0.8,0,1.4,0.6,1.4,1.4v234.1
			C412.2,263.6,411.6,264.3,410.8,264.3z"/>
	</g>
	<g>
		<path class="st2" d="M109.2,193.4c3.1,0,6.6-0.5,10.1-1.3c0.2-0.1,0.3-0.1,0.4-0.1c0.2,0,0.3,0.2,0.4,0.5c0.1,0.8,0.2,2.1,0.2,3.3
			c0,0.8-0.1,1-0.4,1.1c-1.2,0.6-6.3,1.2-10.8,1.2c-5.8,0-9.1-1-11.7-3.4c-1.3-1.2-2.5-3.2-2.5-4.1c0-0.5,0.3-0.8,3-2.3
			c0.2-0.1,0.6,0,0.7,0.2C100,191.9,103.2,193.4,109.2,193.4z M109.5,171.5c2.2,0,3.5-0.1,6.1-0.5c0.1,0,0.2,0,0.3,0
			c0.3,0,0.4,0.1,0.5,0.3c0.1,0.5,0.2,1.6,0.2,3c0,0.9-0.1,1.2-0.3,1.3c-0.3,0.2-3.6,0.4-6.2,0.4c-3.4,0-6.3-0.3-9.4-0.9
			c-2.2-0.4-2.3-0.5-2.3-1.9c0-0.7,0.1-1.8,0.1-2.8c0-0.3,0.3-0.5,0.6-0.4C102.3,171,105.7,171.5,109.5,171.5z M120.8,173.4
			c-0.2,0-0.3-0.1-0.4-0.3c-1-1.6-1.7-2.5-3-3.9c-0.1-0.1-0.2-0.2-0.2-0.3c0-0.3,1.5-1.5,2-1.5c0.3,0,0.7,0.3,1.7,1.4
			c1.2,1.3,2.1,2.5,2.1,2.8C123,172,121.3,173.4,120.8,173.4z M124.7,166.3c1.2,1.3,2,2.4,2,2.7c0,0.2-0.1,0.3-0.7,0.8
			c-0.8,0.6-1.2,0.8-1.4,0.8c-0.1,0-0.2-0.1-0.4-0.4c-1.2-1.7-1.8-2.5-3-3.6c-0.1-0.1-0.2-0.2-0.2-0.3c0-0.3,1.5-1.4,2-1.4
			C123.4,165,123.9,165.4,124.7,166.3z"/>
		<path class="st2" d="M153.7,176.2c-2.1,0-2.1,0-2.4-0.5c-0.2-0.3-0.4-1.6-0.6-3.1c0-0.3,0.2-0.5,0.5-0.5c1.2,0.1,2.5,0.2,4.1,0.2
			c1.1,0,2.6,0,4.2-0.2c0.3-2.3,0.4-3.1,0.4-4.5c0-0.6,0-1.1-0.1-1.9v-0.1h0.1c1.9,0.1,3.9,0.5,4.8,0.8c0.3,0.1,0.4,0.2,0.4,0.5
			c0,0.2,0,0.4-0.3,0.8c-0.3,0.8-0.5,1.4-0.7,2.6c-0.1,0.7-0.2,0.9-0.2,1.4c3.1-0.4,6.3-1.1,8.5-1.9c0.3-0.1,0.5-0.1,0.6-0.1
			c0.3,0,0.4,0.2,0.5,1c0.2,0.8,0.3,2.4,0.3,2.8c0,0.5-0.2,0.5-1.3,0.8c-3,0.6-6.8,1.2-9.5,1.4c-1.2,4.6-1.7,6-3.1,8.6
			c2.1-1.7,3.3-2.3,5.1-3c1.6-0.6,3.3-0.9,5-0.9c2.8,0,5.1,0.8,6.5,2.2c1.3,1.3,2.1,3.3,2.1,5.4c0,2.8-1.3,5.1-4.2,7
			c-2.1,1.4-5.6,2.7-9.1,3.1c-0.6,0.1-1.2,0.2-1.5,0.2c-0.6,0-0.8-0.2-1.1-0.6c-0.5-1-1-1.7-1.6-2.4c-0.3-0.3-0.1-0.8,0.3-0.8
			c3.1-0.2,5.5-0.7,8-1.6c3.6-1.3,5.3-3.6,4.3-6.2c-0.7-1.7-2.4-2.7-4.3-2.7c-4.2,0.1-8.9,2.8-11.9,6.7c-0.2,0.3-0.5,0.4-0.7,0.4
			c-0.7,0-3.3-2.4-3.3-3c0-0.2,0-0.3,0.4-0.8c2-2.7,3.6-6.6,4.7-11.3C158.2,176.1,154.1,176.2,153.7,176.2z"/>
		<path class="st2" d="M233.3,181.2c-1.8,0-4.6,0.6-6.5,1.3c-4.1,1.6-6.8,4.4-6.8,7.2c0,1.7,1.2,2.9,3.5,3.5c1,0.3,2.8,0.5,4.1,0.4
			c0.2,0,0.3,0,0.4,0c0.7,0,0.9,0.2,0.9,0.7c0,1.3-0.2,3-0.4,3.5c-0.2,0.3-0.3,0.4-0.7,0.4c-2.3,0-5.3-0.6-7.3-1.5
			c-3-1.3-4.6-3.5-4.6-6.3c0-1.8,0.7-3.6,2-5.2c0.7-0.9,1.3-1.4,2.7-2.4c-7,2.1-10.5,3.4-12.8,4.9c-0.3,0.2-0.5,0.3-0.7,0.3
			c-0.4,0-0.8-0.3-1.3-1.3c-0.5-0.9-0.9-1.9-0.9-2.5c0-0.3,0.2-0.5,1.1-0.7c0.9-0.3,1.5-0.6,3-1.7c1.8-1.3,4.5-3.7,6.9-5.9
			c2-1.9,3.1-3,5.4-5.7c-2.2,0.3-8.2,1.3-9.1,1.5c-0.5,0.2-0.6,0.2-0.7,0.2c-0.3,0-0.5-0.2-0.7-0.5c-0.3-0.8-0.6-2.1-0.7-3.5
			c0-0.2,0.2-0.3,0.3-0.3c0.4,0,0.6,0,0.9,0c1.7,0,5.4-0.3,10.1-0.9c1.7-0.2,2.7-0.4,3.4-0.8c0.5-0.2,0.5-0.3,0.8-0.3
			c0.5,0,1.1,0.5,2.1,1.8c0.8,0.9,1,1.3,1,1.7s-0.2,0.6-0.7,1c-0.7,0.4-0.7,0.4-3.9,3.4c-2.6,2.4-5.8,5.1-9.3,7.9
			c5.4-1.6,8.2-2.4,14.1-3.7c1.3-0.3,2.6-0.6,4-1.1c0.2-0.1,0.3-0.1,0.5-0.1c0.3,0,0.5,0.2,0.7,0.5c0.4,0.9,0.9,2.7,0.9,3.4
			c0,0.5-0.2,0.8-0.6,0.8L233.3,181.2L233.3,181.2z"/>
		<path class="st2" d="M270.6,175.6c2.5-0.6,4.1-0.9,5.9-0.9c5.4,0,8.6,3.2,8.6,8.7c0,4.8-2.1,8.6-6.3,11.6
			c-2.2,1.6-5.6,3.3-6.7,3.3c-0.5,0-0.6-0.1-1.4-1.3c-0.5-0.7-0.9-1.2-1.6-1.7c-0.3-0.2-0.2-0.5-0.1-0.5c4.1-1.4,5.9-2.3,7.8-4
			c2.3-2,3.5-4.4,3.5-7.3c0-3.1-1.5-4.8-4-4.8c-2.1,0-4.8,0.8-8.2,2.5c-0.5,0.2-0.8,0.4-1.4,0.9c-0.2,0.1-0.3,0.2-0.5,0.2
			c-0.7,0-1.8-1.9-2.6-4.4c-0.1-0.3,0.1-0.6,0.4-0.6C265.1,177,266.3,176.7,270.6,175.6z M273.2,166.4c1.4,0.4,3.5,0.8,5.3,1
			c0.8,0.1,1,0.1,3,0.2c0.6,0,0.7,0.2,0.7,0.6c0,1.3-0.3,3.3-0.5,3.7c-0.1,0.2-0.3,0.3-0.5,0.3c-0.9,0-4-0.4-5.8-0.8
			c-3-0.6-5.7-1.4-6.2-1.8c-0.1-0.1-0.2-0.3-0.2-0.4c0-0.3,0.8-2.4,1.2-3.1c0.2-0.3,0.3-0.4,0.5-0.4
			C270.9,165.7,270.9,165.7,273.2,166.4z"/>
		<path class="st2" d="M321.1,177.2c-2.5,1.5-3.3,2-5.9,3.2c-0.6-1.3-1.1-2.2-1.8-3.3c-0.2-0.3-0.1-0.6,0.2-0.7
			c3.6-1.4,6.1-2.8,8.7-4.8c2.5-1.9,4.3-3.8,5.8-6.2h4.3c2,2.7,3.5,4.1,6.3,6.1c2.9,2.1,5.8,3.6,8.9,4.7c0.3,0.1,0.4,0.4,0.2,0.7
			c-0.7,1.1-1.2,2-1.6,3.1c-0.1,0.3-0.4,0.4-0.6,0.3c-2-0.9-3.4-1.7-5.8-3.1v2.3c0,0.3-0.2,0.5-0.5,0.5c-0.8-0.1-1.6-0.1-2.8-0.1
			h-12.3c-0.9,0-1.8,0-2.6,0.1c-0.3,0-0.5-0.2-0.5-0.5L321.1,177.2L321.1,177.2z M319.1,186.6c-1.6,0-2.8,0.1-3.8,0.2
			c-0.3,0-0.5-0.2-0.5-0.5v-3.2c0-0.3,0.2-0.5,0.5-0.5c1.1,0.1,2.3,0.1,3.8,0.1H342c1.6,0,2.7-0.1,3.8-0.1c0.3,0,0.5,0.2,0.5,0.5
			v3.2c0,0.3-0.2,0.5-0.5,0.5c-1.1-0.1-2.2-0.2-3.8-0.2h-12.6c-1.2,2.8-2.4,4.9-3.8,7.1c6.4-0.3,6.4-0.3,11.7-0.9
			c-1.1-1.2-1.7-1.9-3.4-3.5c-0.2-0.2-0.2-0.6,0.1-0.8l2.7-1.2c0.2-0.1,0.4,0,0.5,0.1c3.6,3.6,5.3,5.5,8,9c0.2,0.2,0.1,0.5-0.1,0.7
			l-2.7,1.8c-0.2,0.1-0.5,0.1-0.7-0.1c-0.8-1.2-1.2-1.7-1.9-2.8c-3.1,0.4-5.3,0.6-6.6,0.8c-3.8,0.4-10.8,1-12.4,1.1
			c-1.7,0.1-3.3,0.2-4.3,0.4c-0.3,0-0.5-0.1-0.5-0.4c0,0-0.4-3.1-0.4-3.4c-0.1-0.4,0.2-0.5,0.4-0.5c0.8,0.1,1.2,0.1,1.6,0.1
			c0.3,0,1.4,0,3.3-0.2c1.8-2.7,3-4.9,3.9-7.3L319.1,186.6L319.1,186.6z M336.5,176c0.5,0,0.8,0,1.6,0c-3.3-2.2-5.5-4.2-7.7-7.1
			c-1.9,2.6-4.1,4.7-7.6,7.1c0.6,0,0.9,0,1.5,0H336.5z"/>
	</g>
	<g>
		<g>
			<path class="st2" d="M330.3,97.4l3.6,10.9h11.5c0.3,0,0.4,0.4,0.2,0.5l-9.3,6.7l3.6,10.9c0.1,0.3-0.2,0.5-0.5,0.3l-9.3-6.7
				l-9.3,6.7c-0.2,0.2-0.5-0.1-0.5-0.3l3.6-10.9l-9.3-6.7c-0.2-0.2-0.1-0.5,0.2-0.5h11.5l3.6-10.9C329.8,97.1,330.2,97.1,330.3,97.4
				z"/>
		</g>
		<g>
			<path class="st2" d="M275.2,97.4l3.6,10.9h11.5c0.3,0,0.4,0.4,0.2,0.5l-9.3,6.7l3.6,10.9c0.1,0.3-0.2,0.5-0.5,0.3L275,120
				l-9.3,6.7c-0.2,0.2-0.5-0.1-0.5-0.3l3.6-10.9l-9.3-6.7c-0.2-0.2-0.1-0.5,0.2-0.5h11.5l3.6-10.9C274.7,97.1,275.1,97.1,275.2,97.4
				z"/>
		</g>
		<g>
			<path class="st2" d="M220.1,97.4l3.6,10.9h11.5c0.3,0,0.4,0.4,0.2,0.5l-9.3,6.7l3.6,10.9c0.1,0.3-0.2,0.5-0.5,0.3l-9.3-6.7
				l-9.3,6.7c-0.2,0.2-0.5-0.1-0.5-0.3l3.6-10.9l-9.3-6.7c-0.2-0.2-0.1-0.5,0.2-0.5h11.5l3.6-10.9C219.6,97.1,220,97.1,220.1,97.4z"
				/>
		</g>
		<g>
			<path class="st2" d="M165,97.4l3.6,10.9h11.5c0.3,0,0.4,0.4,0.2,0.5l-9.3,6.7l3.6,10.9c0.1,0.3-0.2,0.5-0.5,0.3l-9.3-6.7
				l-9.3,6.7c-0.2,0.2-0.5-0.1-0.5-0.3l3.6-10.9l-9.3-6.7c-0.2-0.2-0.1-0.5,0.2-0.5H161l3.6-10.9C164.5,97.1,164.9,97.1,165,97.4z"
				/>
		</g>
		<g>
			<path class="st2" d="M109.9,97.4l3.6,10.9H125c0.3,0,0.4,0.4,0.2,0.5l-9.4,6.8l3.6,10.9c0.1,0.3-0.2,0.5-0.5,0.3l-9.3-6.7
				l-9.3,6.7c-0.2,0.2-0.5-0.1-0.5-0.3l3.6-10.9l-9.3-6.8c-0.2-0.2-0.1-0.5,0.2-0.5h11.5l3.6-10.9C109.4,97.1,109.8,97.1,109.9,97.4
				z"/>
		</g>
	</g>
</g>
</svg>
