<?xml version="1.0" encoding="utf-8"?>
<!-- Generator: Adobe Illustrator 23.0.4, SVG Export Plug-In . SVG Version: 6.00 Build 0)  -->
<svg version="1.1" id="レイヤー_1" xmlns="http://www.w3.org/2000/svg" xmlns:xlink="http://www.w3.org/1999/xlink" x="0px"
	 y="0px" viewBox="0 0 415.4 121.5" style="enable-background:new 0 0 415.4 121.5;" xml:space="preserve">
<style type="text/css">
	.st0{fill:#FFFFFF;}
	.st1{clip-path:url(#SVGID_2_);fill:#FFFFFF;}
	.st2{clip-path:url(#SVGID_4_);stroke:#000000;stroke-width:0.5357;stroke-miterlimit:10;}
	.st3{clip-path:url(#SVGID_6_);stroke:#000000;stroke-width:0.1427;stroke-miterlimit:10;}
	.st4{clip-path:url(#SVGID_8_);}
	.st5{clip-path:url(#SVGID_10_);stroke:#000000;stroke-width:0.1427;stroke-miterlimit:10;}
	.st6{clip-path:url(#SVGID_12_);stroke:#000000;stroke-width:0.1427;stroke-miterlimit:10;}
</style>
<g>
	<path class="st0" d="M12.4,120.3c-6.1,0-11-4.3-11-9.6V10.8c0-5.3,5-9.6,11-9.6h390.7c6.1,0,11,4.3,11,9.6v99.8c0,5.3-5,9.6-11,9.6
		L12.4,120.3L12.4,120.3z"/>
	<path d="M403.1,2.5c5.3,0,9.6,3.8,9.6,8.4v99.8c0,4.7-4.3,8.4-9.6,8.4H12.4c-5.3,0-9.6-3.8-9.6-8.4V10.8c0-4.6,4.3-8.4,9.6-8.4
		H403.1 M403.1,0H12.4C5.5,0,0,4.8,0,10.8v99.8c0,6,5.5,10.8,12.4,10.8h390.7c6.8,0,12.4-4.8,12.4-10.8V10.8
		C415.5,4.8,409.9,0,403.1,0L403.1,0z"/>
</g>
<g>
	<path d="M94.5,47.6c-3.2,0.2-6.6,0.3-9.5,0.3c-1.1,0-1.7-0.8-1.7-2c0-1.2,0.6-2,1.7-2c2.9,0,6.1-0.1,9.5-0.3v-8.1
		c0-1.2,0.8-1.7,2-1.7c1.2,0,2,0.6,2,1.8v7.7c3.2-0.3,6.4-0.6,8.9-1.2c0.2-0.1,0.3-0.1,0.5-0.1c0.9,0,1.5,0.5,1.7,1.5
		c0.1,0.2,0.1,0.4,0.1,0.6c0,1-0.6,1.6-1.5,1.8c-2.9,0.6-6.2,1-9.7,1.3v8.9c3.6-1,7.3-1.7,10.7-1.7c8.9,0,14.2,4.4,14.2,11.6
		c0,6.8-4.5,11.2-10.5,11.2c-3.8,0-6.9-1.4-8.9-4.3c-0.3-0.5-0.5-1-0.5-1.4c0-0.6,0.3-1.3,0.8-1.7c0.5-0.3,0.9-0.5,1.4-0.5
		c0.6,0,1.2,0.3,1.7,0.9c1.3,1.7,2.9,2.8,5.3,2.8c3.4,0,6.4-2.5,6.4-6.9c0-4.9-3.4-8-10.1-8c-3.4,0-7.2,0.7-10.6,2v11.5
		c0,3.9-2,5.8-5.7,5.8c-1.7,0-4-0.7-6-2.1c-2.3-1.5-4-3.7-4-6.4c0-1.5,0.6-2.9,1.5-4.3c2-2.7,5.7-5.4,10.3-7.3v-9.7H94.5z
		 M94.5,61.5c-3.2,1.5-5.7,3.4-6.8,4.9c-0.6,0.8-0.9,1.7-0.9,2.5c0,1.2,1,2.3,2.2,3.1c1,0.7,2.4,1.2,3.4,1.2c1.5,0,2.2-0.6,2.2-2.6
		V61.5z M125.5,46.9c0.3,0.5,0.6,1,0.6,1.5c0,0.6-0.2,1.1-0.6,1.5c-0.5,0.4-1,0.6-1.5,0.6s-1.1-0.2-1.5-0.7c-2.6-3-6.4-6.2-9.5-8.2
		c-0.6-0.3-0.8-0.8-0.8-1.4c0-0.5,0.1-0.9,0.5-1.4c0.4-0.5,1-0.8,1.6-0.8c0.3,0,0.8,0.1,1.2,0.3C118.7,40.4,122.9,43.9,125.5,46.9z"
		/>
	<path d="M178.6,37.9c1.2,0,1.6,0.8,1.6,1.7c0,1-0.4,1.9-1.6,1.9h-34.9c-1.7,0-2.3,0.6-2.3,2.2c0,6.8-0.1,15.2-1,21.3
		c-0.7,5.2-1.9,9.6-3.7,13.2c-0.5,0.9-1.2,1.4-2,1.4c-0.3,0-0.7-0.1-1-0.3c-0.7-0.3-1-0.9-1-1.6c0-0.5,0.2-1.1,0.5-1.7
		c1.5-2.8,2.7-6.9,3.4-12.7c0.7-5.4,0.7-13.9,0.7-20.3c0-3.4,1.8-5.1,5.1-5.1h13.3v-3.8c0-1.1,0.8-1.7,2-1.7c1.3,0,2,0.6,2,1.7v3.8
		H178.6z M171.2,61.4c3.3,0,4.7,1.2,4.7,4.3v9.2c0,3.2-1.5,4.4-4.7,4.4h-20.9c-3.3,0-4.7-1.2-4.7-4.4v-9.2c0-3.1,1.5-4.3,4.7-4.3h7
		V44.6c0-1,0.8-1.5,2-1.5c1.2,0,1.9,0.5,1.9,1.5v5.3h15.9c0.8,0,1.4,0.7,1.4,1.7c0,1.1-0.6,1.8-1.4,1.8h-15.9v7.8L171.2,61.4
		L171.2,61.4z M170.2,75.7c1.2,0,1.7-0.3,1.7-1.5v-7.7c0-1.2-0.5-1.5-1.7-1.5h-19.1c-1.1,0-1.7,0.3-1.7,1.5v7.7
		c0,1.2,0.5,1.5,1.7,1.5H170.2z"/>
	<path d="M201.4,54.4c4-2.8,6.8-4.1,9.9-4.1c3.6,0,6.4,1.5,7,5.9c4.5-1.6,8.9-3,12.4-4c0.3-0.1,0.6-0.1,0.8-0.1
		c0.9,0,1.5,0.5,1.9,1.4c0.1,0.3,0.1,0.6,0.1,0.8c0,0.9-0.5,1.6-1.6,1.9c-3.7,1-8.4,2.2-13.3,4c0.1,1.8,0.1,3.6,0.1,5.4
		c0,1,0,2-0.1,2.9c-0.1,1.3-0.8,2-2,2c-1.2,0-1.9-0.6-1.9-2c0-1.4,0-3.1,0-4.7c0-0.8,0-1.7,0-2.4c-7.1,2.7-10.2,5.8-10.2,8.9
		c0,3,3.3,4.5,10.4,4.5c4.9,0,9.9-0.5,13.7-1.1c0.3-0.1,0.5-0.1,0.7-0.1c1,0,1.7,0.5,1.9,1.5c0.1,0.2,0.1,0.3,0.1,0.5
		c0,1-0.7,2-1.9,2.1c-3.8,0.6-8.7,1-14.1,1c-9.5,0-14.9-2.7-14.9-8.4c0-4.8,4.7-9.5,14.1-12.9c-0.3-3.1-1.8-4-4-4
		c-4.3,0-9.8,3.4-15.9,9.5c-0.5,0.5-1,0.8-1.6,0.8c-0.5,0-1-0.2-1.4-0.6c-0.5-0.4-0.6-1-0.6-1.5c0-0.6,0.3-1.2,0.7-1.6
		c4.3-4,8.7-9.3,12-14.5c-0.7,0-1.5,0-2.3,0c-2.5,0-5.4-0.1-7.7-0.1c-1.1-0.1-1.7-0.8-1.7-1.9c0-0.1,0-0.1,0-0.2
		c0.1-1,0.8-1.9,1.8-1.9c0.1,0,0.1,0,0.1,0c2.4,0.2,5.7,0.3,8.9,0.3c1,0,2,0,2.9,0c1-1.8,2-3.7,2.5-5.5c0.3-1,1-1.5,1.9-1.5
		c0.3,0,0.5,0.1,0.7,0.1c1,0.2,1.5,0.8,1.5,1.5c0,0.3-0.1,0.6-0.2,0.8c-0.6,1.5-1.3,2.9-2,4.3c4.3-0.1,10.3-0.8,15.9-1.5
		c0.1-0.1,0.3-0.1,0.5-0.1c1,0,1.7,0.6,1.8,1.6c0,0.1,0,0.2,0,0.3c0,1-0.6,1.7-1.7,1.9c-6.4,0.9-12.7,1.5-18.5,1.6
		c-2,3.4-4.3,6.4-6.9,8.7L201.4,54.4z"/>
	<path d="M274.6,59.1c-3.2-2.9-6.4-6.8-9.2-11.6c-5.9,0.8-12.6,1.3-19.1,1.3c-1.3,0-2-0.8-2-2.2c0-1.2,0.8-2,2-2
		c5.7,0,11.8-0.3,17-0.9c-1.3-2.3-2.4-4.9-3.3-7.3c-0.1-0.3-0.1-0.6-0.1-0.9c0-0.9,0.7-1.5,1.6-1.7c0.3-0.1,0.5-0.1,0.8-0.1
		c0.9,0,1.5,0.4,1.9,1.5c0.9,2.7,2,5.2,3.3,7.8c4.5-0.6,9.1-1.5,12.8-2.7c0.3-0.1,0.6-0.1,0.9-0.1c0.8,0,1.5,0.5,1.8,1.4
		c0.1,0.3,0.1,0.5,0.1,0.8c0,0.8-0.5,1.6-1.4,1.9c-3.6,1.1-8.1,2-12,2.7c2.7,4.7,6.7,9.4,11.1,13.6c0.5,0.5,0.7,1.1,0.7,1.7
		c0,0.6-0.3,1.2-0.7,1.7c-0.5,0.4-0.9,0.6-1.5,0.6c-0.6,0-1.3-0.2-2-0.6c-3.4-1.8-9-3.2-14.8-3.2c-7.2,0-11.9,2.2-11.9,6.7
		c0,4.2,5,6.4,12.6,6.4c5,0,10.1-0.8,14.1-1.9c0.3-0.1,0.6-0.1,0.9-0.1c0.9,0,1.7,0.5,1.9,1.3c0.1,0.3,0.1,0.6,0.1,0.9
		c0,1-0.6,1.7-1.7,2c-4.3,1.3-9.5,2-15.1,2c-11,0-17.2-4-17.2-10.7c0-6.5,6.3-10.3,16-10.3c4.8,0,9.4,1.1,12.4,2.4L274.6,59.1z"/>
	<path d="M306,36c0.1-1.3,0.9-1.8,2-1.8c0.1,0,0.3,0.1,0.5,0.1c1.2,0.1,1.8,0.8,1.8,1.7c0,0.1,0,0.3,0,0.5c-0.4,2.9-1.1,6-1.7,8.9
		c1.5-0.1,2.7-0.1,4-0.1c7,0,10.2,3.6,10.2,11.7c0,5-0.7,10.1-1.8,13.8c-1.5,5.1-4.4,6.9-8.5,6.9c-2.5,0-5.4-0.7-7.5-1.9
		c-0.7-0.4-1.1-1.1-1.1-1.9c0-0.3,0.1-0.7,0.3-1c0.3-0.7,0.9-1.1,1.7-1.1c0.4,0,0.9,0.1,1.3,0.3c1.5,0.7,3.6,1.3,5.4,1.3
		c2.2,0,3.5-0.9,4.5-4.3c0.8-2.9,1.5-7.8,1.5-12.4c0-5.7-1.5-7.7-6.4-7.7c-1.7,0-3.1,0.1-4.5,0.2c-0.8,3-1.7,6.1-2.8,9.1
		c-2.4,7-5.2,13.2-8.4,18.4c-0.5,0.9-1.3,1.3-1.9,1.3c-0.4,0-0.8-0.1-1.2-0.3c-0.7-0.4-1.1-1.1-1.1-1.8c0-0.5,0.1-0.9,0.4-1.3
		c3.1-5,5.9-10.8,8.2-17.4c0.8-2.4,1.7-4.9,2.4-7.5c-2.7,0.2-6.3,0.7-9.2,1.1c-0.1,0.1-0.3,0.1-0.5,0.1c-0.9,0-1.6-0.6-1.7-1.7
		c-0.1-0.1-0.1-0.3-0.1-0.4c0-1,0.7-1.7,1.7-1.9c3.1-0.5,7.4-1,10.7-1.3C305.1,42.4,305.6,39.2,306,36z M323.9,43.5
		c0-0.7,0.4-1.4,1.1-1.7c0.3-0.2,0.8-0.3,1.1-0.3c0.7,0,1.4,0.3,1.9,0.9c3.8,5.1,7.5,12.5,9.3,18.4c0.1,0.3,0.1,0.6,0.1,0.9
		c0,0.9-0.5,1.6-1.3,1.9c-0.3,0.1-0.7,0.2-1,0.2c-0.9,0-1.7-0.5-2-1.6c-1.8-5.5-5.1-12.6-8.9-17.6C324.1,44.2,323.9,43.9,323.9,43.5
		z M329,34.4c0.6,0,0.9,0.1,1.3,0.6c1.6,1.6,3.5,4,4.5,5.8c0.1,0.3,0.3,0.7,0.3,1.3c0,0.8-0.7,1.5-1.7,1.5c-0.6,0-1-0.3-1.3-0.9
		c-1.1-1.9-2.7-4-4-5.7c-0.3-0.3-0.5-0.8-0.5-1.3C327.5,35.1,328.2,34.4,329,34.4z M334.7,31.1c0.6,0,0.9,0.2,1.4,0.6
		c1.3,1.3,3.3,4,4.3,5.7c0.1,0.3,0.3,0.7,0.3,1.3c0,0.6-0.6,1.5-1.6,1.5c-0.6,0-1-0.3-1.3-0.8c-1.1-2-2.5-4-3.9-5.4
		c-0.5-0.5-0.6-0.7-0.6-1.3C333.2,31.8,334,31.1,334.7,31.1z"/>
	<path d="M372.9,61.2c-1.3,4.5-4.5,6-8.6,6c-5.4,0-9.2-3.7-9.2-8.9c0-5.4,4.3-9.2,10.2-9.2c2.5,0,4.7,0.8,6.1,2.4
		c-0.1-1.9-0.1-4.5-0.1-6.9c-7.6,0.1-15.5,0.5-23,0.9c-0.1,0-0.1,0-0.2,0c-1.2,0-1.9-0.8-1.9-2c0-0.1,0-0.1,0-0.1
		c0-1.1,0.7-1.9,1.9-2c7.3-0.4,15.4-0.7,23.2-0.8c0-1.8-0.1-3.6-0.1-5.2c0-1.1,0.7-1.9,2-1.9c1.5,0,2.2,0.6,2.2,2c0,1.5,0,3.1,0,5
		c2.8-0.1,5.5-0.1,8.2-0.1c1.9,0,3.7,0,5.4,0.1c1.4,0,2.1,0.7,2.1,2.1c0,0.1,0,0.1,0,0.1c0,1.3-0.7,1.8-1.9,1.8
		c-3.1-0.1-6.3-0.1-9.6-0.1c-1.4,0-2.8,0-4.3,0.1c0,3.5,0,7.1,0,10.7c1,2.1,1.5,4.3,1.5,6.8c0,6.7-2.9,11-8.4,14
		c-2.3,1.3-5.1,2.2-8.2,2.7c-0.1,0.1-0.3,0.1-0.5,0.1c-1,0-1.9-0.6-2.1-1.7c-0.1-0.2-0.1-0.4-0.1-0.6c0-1.1,0.6-1.9,1.7-2.1
		c9.2-1.7,13.8-6.1,13.8-12.1v-1h-0.1V61.2z M365.6,52.6c-3.5,0-6.2,2.3-6.2,5.6c0,3.5,2.4,5.2,5.7,5.2c3.6,0,6.1-2.5,6.1-6.2
		C371.1,54.4,368.9,52.6,365.6,52.6z"/>
</g>
<g>
	<g>
		<g>
			<defs>
				<rect id="SVGID_1_" x="15.5" y="35.6" width="57.8" height="82.8"/>
			</defs>
			<clipPath id="SVGID_2_">
				<use xlink:href="#SVGID_1_"  style="overflow:visible;"/>
			</clipPath>
			<path class="st1" d="M71.3,127.3l-23.2,43.3c-1,1-2.2,1.4-3.5,1.4l0,0l0,0l0,0c-1.3,0-2.5-0.5-3.5-1.4L18,127.3
				c-1-1-1.4-2.2-1.4-3.5c0-1.3,0.5-2.5,1.4-3.5c0,0,17.4-38.2,17.7-39.5c0.3-1.5-0.6-2.4-1.5-3.2l0,0h-0.1c-5-3.4-8.3-9.1-8.3-15.6
				c0-5.2,2.1-9.9,5.5-13.3c3.4-3.4,8.1-5.5,13.3-5.5h0.1h0.1c5.2,0,9.9,2.1,13.3,5.5c3.4,3.4,5.5,8.1,5.5,13.3
				c0,6.5-3.3,12.2-8.3,15.6l0,0h-0.1c-1,0.8-2,2-1.5,3.2c0.4,1.2,17.7,39.5,17.7,39.5c1,1,1.4,2.2,1.5,3.5
				C72.7,125.2,72.2,126.4,71.3,127.3z"/>
		</g>
		<g>
			<defs>
				<rect id="SVGID_3_" x="15.5" y="35.6" width="57.8" height="82.8"/>
			</defs>
			<clipPath id="SVGID_4_">
				<use xlink:href="#SVGID_3_"  style="overflow:visible;"/>
			</clipPath>
			<path class="st2" d="M72.9,118.9c0,0-17.1-37.3-17.1-37.9c0-0.6,0.3-1.2,0.7-1.5c5.5-3.8,9.2-10.1,9.2-17.3c0-11.6-9.4-21-21-21
				l0,0l0,0l0,0c-11.6,0-21,9.4-21,21c0,7.2,3.6,13.5,9.2,17.3c0.4,0.3,0.7,0.9,0.7,1.5s-17.1,37.9-17.1,37.9
				c-1.4,1.4-2.1,3.2-2.1,5c0,1.8,0.7,3.6,2.1,5l23.2,43.3c1.4,1.4,3.2,2.1,5,2.1l0,0c1.8,0,3.6-0.7,5-2.1l23.2-43.3
				c1.4-1.4,2.1-3.2,2.1-5C74.9,122,74.3,120.2,72.9,118.9z M71.3,127.3l-23.2,43.3c-1,1-2.2,1.4-3.5,1.4l0,0l0,0l0,0
				c-1.3,0-2.5-0.5-3.5-1.4L18,127.3c-1-1-1.4-2.2-1.4-3.5c0-1.3,0.5-2.5,1.4-3.5c0,0,17.4-38.2,17.7-39.5c0.3-1.5-0.6-2.4-1.5-3.2
				l0,0h-0.1c-5-3.4-8.3-9.1-8.3-15.6c0-5.2,2.1-9.9,5.5-13.3c3.4-3.4,8.1-5.5,13.3-5.5h0.1h0.1c5.2,0,9.9,2.1,13.3,5.5
				c3.4,3.4,5.5,8.1,5.5,13.3c0,6.5-3.3,12.2-8.3,15.6l0,0h-0.1c-1,0.8-2,2-1.5,3.2c0.4,1.2,17.7,39.5,17.7,39.5
				c1,1,1.4,2.2,1.5,3.5C72.7,125.2,72.2,126.4,71.3,127.3z"/>
		</g>
		<g>
			<defs>
				<rect id="SVGID_5_" x="15.5" y="35.6" width="57.8" height="82.8"/>
			</defs>
			<clipPath id="SVGID_6_">
				<use xlink:href="#SVGID_5_"  style="overflow:visible;"/>
			</clipPath>
			<path class="st3" d="M43,63.1c0,0.9-0.7,1.6-1.6,1.6c-0.9,0-1.6-0.7-1.6-1.6s0.7-1.6,1.6-1.6C42.2,61.4,43,62.2,43,63.1"/>
		</g>
		<g>
			<defs>
				<rect id="SVGID_7_" x="15.5" y="35.6" width="57.8" height="82.8"/>
			</defs>
			<clipPath id="SVGID_8_">
				<use xlink:href="#SVGID_7_"  style="overflow:visible;"/>
			</clipPath>
			<path class="st4" d="M45.2,68.7c0,0.1,0,0.3,0.1,0.5c0.2,1.5,1.5,2.7,3.1,2.7c1.7,0,3.2-1.4,3.2-3.2H45.2"/>
		</g>
		<g>
			<defs>
				<rect id="SVGID_9_" x="15.5" y="35.6" width="57.8" height="82.8"/>
			</defs>
			<clipPath id="SVGID_10_">
				<use xlink:href="#SVGID_9_"  style="overflow:visible;"/>
			</clipPath>
			<path class="st5" d="M49.9,63.1c0,0.9-0.7,1.6-1.6,1.6s-1.6-0.7-1.6-1.6s0.7-1.6,1.6-1.6C49.2,61.4,49.9,62.2,49.9,63.1"/>
		</g>
		<g>
			<defs>
				<rect id="SVGID_11_" x="15.5" y="35.6" width="57.8" height="82.8"/>
			</defs>
			<clipPath id="SVGID_12_">
				<use xlink:href="#SVGID_11_"  style="overflow:visible;"/>
			</clipPath>
			<path class="st6" d="M56.9,63.1c0,0.9-0.7,1.6-1.6,1.6s-1.6-0.7-1.6-1.6s0.7-1.6,1.6-1.6C56.2,61.4,56.9,62.2,56.9,63.1"/>
		</g>
	</g>
</g>
</svg>
