<?xml version="1.0" encoding="utf-8"?>
<!-- Generator: Adobe Illustrator 23.0.4, SVG Export Plug-In . SVG Version: 6.00 Build 0)  -->
<svg version="1.1" id="レイヤー_1" xmlns="http://www.w3.org/2000/svg" xmlns:xlink="http://www.w3.org/1999/xlink" x="0px"
	 y="0px" viewBox="0 0 595.3 198.4" style="enable-background:new 0 0 595.3 198.4;" xml:space="preserve">
<style type="text/css">
	.st0{fill:#FFFFFF;}
	.st1{clip-path:url(#SVGID_2_);fill:#FFFFFF;}
	.st2{clip-path:url(#SVGID_2_);stroke:#000000;stroke-width:0.5357;stroke-miterlimit:10;}
	.st3{clip-path:url(#SVGID_2_);stroke:#000000;stroke-width:0.1427;stroke-miterlimit:10;}
	.st4{clip-path:url(#SVGID_2_);}
</style>
<g>
	<path class="st0" d="M17.7,196.4c-8.7,0-15.7-7.1-15.7-15.7V17.7C2,9.1,9.1,2,17.7,2h559.8c8.7,0,15.7,7.1,15.7,15.7v162.9
		c0,8.7-7.1,15.7-15.7,15.7H17.7z"/>
	<path d="M577.5,4c7.6,0,13.7,6.2,13.7,13.7v162.9c0,7.6-6.2,13.7-13.7,13.7H17.7c-7.6,0-13.7-6.2-13.7-13.7V17.7
		C4,10.2,10.2,4,17.7,4H577.5 M577.5,0H17.7C7.9,0,0,7.9,0,17.7v162.9c0,9.8,7.9,17.7,17.7,17.7h559.8c9.8,0,17.7-7.9,17.7-17.7
		V17.7C595.3,7.9,587.3,0,577.5,0L577.5,0z"/>
</g>
<g>
	<path d="M135.4,92.5c-4.6,0.3-9.4,0.4-13.6,0.4c-1.6,0-2.5-1.2-2.5-2.8c0-1.7,0.9-2.8,2.5-2.8c4.1,0,8.8-0.1,13.6-0.5V75.2
		c0-1.7,1.2-2.5,2.8-2.5c1.7,0,2.8,0.9,2.8,2.6v11c4.6-0.4,9.1-0.9,12.8-1.7c0.3-0.1,0.5-0.1,0.7-0.1c1.3,0,2.2,0.7,2.5,2.2
		c0.1,0.3,0.1,0.6,0.1,0.8c0,1.5-0.9,2.3-2.2,2.6c-4.1,0.8-8.9,1.4-13.9,1.8v12.7c5.1-1.5,10.4-2.5,15.4-2.5
		c12.8,0,20.4,6.3,20.4,16.6c0,9.7-6.4,16-15.1,16c-5.4,0-9.9-2-12.8-6.2c-0.4-0.7-0.7-1.4-0.7-2c0-0.9,0.4-1.8,1.2-2.4
		c0.7-0.4,1.3-0.7,2-0.7c0.9,0,1.7,0.4,2.4,1.3c1.9,2.5,4.2,4,7.6,4c4.9,0,9.1-3.6,9.1-9.9c0-7-4.9-11.4-14.5-11.4
		c-4.9,0-10.3,1-15.2,2.8v16.5c0,5.6-2.8,8.3-8.2,8.3c-2.5,0-5.7-1-8.6-3c-3.3-2.2-5.8-5.3-5.8-9.1c0-2.1,0.8-4.1,2.2-6.1
		c2.8-3.8,8.2-7.8,14.8-10.4V92.5z M135.4,112.4c-4.6,2.1-8.1,4.8-9.8,7c-0.9,1.2-1.3,2.5-1.3,3.6c0,1.7,1.4,3.3,3.1,4.5
		c1.5,1,3.5,1.7,4.9,1.7c2.2,0,3.1-0.9,3.1-3.7V112.4z M179.8,91.5c0.5,0.7,0.8,1.5,0.8,2.2c0,0.8-0.3,1.6-0.9,2.2
		c-0.7,0.6-1.4,0.9-2.2,0.9s-1.6-0.3-2.2-1c-3.7-4.3-9.1-8.9-13.6-11.7c-0.8-0.5-1.2-1.2-1.2-2c0-0.7,0.2-1.3,0.7-2
		c0.6-0.7,1.4-1.1,2.3-1.1c0.5,0,1.2,0.1,1.7,0.4C170.1,82.2,176.1,87.1,179.8,91.5z"/>
	<path d="M255.9,78.6c1.7,0,2.3,1.1,2.3,2.5c0,1.5-0.6,2.7-2.3,2.7h-50c-2.4,0-3.3,0.9-3.3,3.2c0,9.7-0.2,21.8-1.4,30.5
		c-1,7.4-2.7,13.8-5.3,18.9c-0.7,1.3-1.7,2-2.8,2c-0.5,0-1-0.1-1.5-0.4c-1-0.4-1.5-1.3-1.5-2.3c0-0.7,0.3-1.6,0.7-2.5
		c2.1-4,3.8-9.9,4.8-18.2c1-7.8,1-19.9,1-29.1c0-4.9,2.6-7.3,7.3-7.3H223v-5.5c0-1.6,1.2-2.4,2.9-2.4c1.9,0,2.9,0.8,2.9,2.4v5.5
		H255.9z M245.3,112.2c4.7,0,6.8,1.7,6.8,6.2v13.2c0,4.6-2.1,6.3-6.8,6.3h-30c-4.7,0-6.8-1.7-6.8-6.3v-13.2c0-4.5,2.1-6.2,6.8-6.2
		h10.1v-24c0-1.4,1.1-2.1,2.8-2.1c1.7,0,2.7,0.7,2.7,2.1v7.6h22.8c1.2,0,2,1,2,2.5c0,1.6-0.8,2.6-2,2.6h-22.8v11.2H245.3z
		 M243.9,132.7c1.7,0,2.4-0.4,2.4-2.1v-11.1c0-1.7-0.7-2.1-2.4-2.1h-27.3c-1.6,0-2.4,0.4-2.4,2.1v11.1c0,1.7,0.7,2.1,2.4,2.1H243.9z
		"/>
	<path d="M288.6,102.2c5.7-4,9.7-5.9,14.2-5.9c5.2,0,9.1,2.2,10,8.5c6.5-2.3,12.8-4.3,17.8-5.7c0.4-0.1,0.9-0.1,1.2-0.1
		c1.3,0,2.2,0.7,2.7,2c0.1,0.4,0.1,0.8,0.1,1.2c0,1.3-0.7,2.3-2.3,2.7c-5.3,1.4-12.1,3.2-19.1,5.7c0.1,2.6,0.2,5.1,0.2,7.8
		c0,1.4,0,2.8-0.1,4.1c-0.1,1.8-1.2,2.8-2.8,2.8c-1.7,0-2.7-0.9-2.7-2.8c0-2,0-4.4,0-6.7c0-1.2,0-2.4,0-3.5
		c-10.2,3.9-14.6,8.3-14.6,12.8c0,4.3,4.7,6.5,14.9,6.5c7,0,14.2-0.7,19.6-1.6c0.4-0.1,0.7-0.1,1-0.1c1.5,0,2.4,0.7,2.7,2.2
		c0.1,0.3,0.1,0.5,0.1,0.7c0,1.5-1,2.8-2.7,3c-5.4,0.9-12.5,1.5-20.2,1.5c-13.6,0-21.3-3.8-21.3-12.1c0-6.9,6.7-13.6,20.2-18.5
		c-0.4-4.4-2.6-5.7-5.8-5.7c-6.2,0-14.1,4.8-22.8,13.6c-0.7,0.7-1.5,1.1-2.3,1.1c-0.7,0-1.4-0.3-2-0.9c-0.7-0.6-0.9-1.4-0.9-2.2
		c0-0.9,0.4-1.7,1-2.3c6.2-5.8,12.5-13.3,17.2-20.8c-1,0-2.2,0-3.3,0c-3.6,0-7.8-0.1-11-0.2c-1.6-0.1-2.5-1.2-2.5-2.7
		c0-0.1,0-0.2,0-0.3c0.1-1.5,1.2-2.7,2.6-2.7c0.1,0,0.1,0,0.2,0c3.4,0.3,8.1,0.4,12.8,0.4c1.4,0,2.8,0,4.1,0
		c1.5-2.6,2.8-5.3,3.6-7.9c0.5-1.5,1.5-2.1,2.7-2.1c0.4,0,0.7,0.1,1,0.1c1.5,0.3,2.2,1.2,2.2,2.2c0,0.4-0.1,0.8-0.3,1.2
		c-0.9,2.1-1.8,4.1-2.9,6.2c6.2-0.2,14.8-1.1,22.8-2.2c0.2-0.1,0.4-0.1,0.7-0.1c1.5,0,2.4,0.8,2.6,2.3c0,0.1,0,0.3,0,0.5
		c0,1.4-0.9,2.4-2.5,2.7c-9.1,1.3-18.2,2.1-26.5,2.3c-2.8,4.8-6.2,9.1-9.9,12.4L288.6,102.2z"/>
	<path d="M393.5,109c-4.6-4.2-9.2-9.7-13.2-16.6c-8.5,1.1-18,1.8-27.4,1.8c-1.8,0-2.9-1.2-2.9-3.1c0-1.7,1.1-2.9,2.8-2.9
		c8.1,0,16.9-0.4,24.3-1.3c-1.9-3.3-3.4-7-4.7-10.4c-0.1-0.4-0.2-0.9-0.2-1.3c0-1.3,1-2.1,2.3-2.4c0.4-0.1,0.7-0.1,1.1-0.1
		c1.3,0,2.2,0.6,2.7,2.2c1.3,3.8,2.8,7.5,4.7,11.2c6.5-0.9,13-2.2,18.3-3.8c0.4-0.1,0.9-0.2,1.3-0.2c1.2,0,2.1,0.7,2.6,2
		c0.1,0.4,0.1,0.7,0.1,1.1c0,1.2-0.7,2.3-2,2.7c-5.2,1.6-11.6,2.9-17.2,3.8c3.9,6.8,9.6,13.5,15.9,19.5c0.7,0.7,1,1.6,1,2.4
		c0,0.9-0.4,1.7-1,2.4c-0.7,0.6-1.3,0.8-2.1,0.8c-0.9,0-1.9-0.3-2.9-0.9c-4.9-2.6-12.9-4.6-21.2-4.6c-10.3,0-17.1,3.1-17.1,9.6
		c0,6,7.2,9.2,18.1,9.2c7.1,0,14.5-1.1,20.2-2.7c0.4-0.1,0.9-0.1,1.3-0.1c1.3,0,2.4,0.7,2.7,1.9c0.1,0.4,0.2,0.9,0.2,1.3
		c0,1.4-0.8,2.4-2.4,2.9c-6.1,1.8-13.6,2.9-21.7,2.9c-15.8,0-24.6-5.7-24.6-15.3c0-9.3,9-14.8,22.9-14.8c6.9,0,13.5,1.6,17.8,3.5
		L393.5,109z"/>
	<path d="M438.5,75.9c0.2-1.9,1.3-2.6,2.8-2.6c0.2,0,0.4,0.1,0.7,0.1c1.7,0.2,2.6,1.1,2.6,2.5c0,0.2,0,0.4,0,0.7
		c-0.6,4.2-1.6,8.6-2.5,12.7c2.1-0.1,3.9-0.1,5.7-0.1c10.1,0,14.6,5.2,14.6,16.7c0,7.1-1,14.4-2.6,19.8c-2.1,7.3-6.3,9.9-12.2,9.9
		c-3.6,0-7.7-1-10.7-2.7c-1-0.6-1.6-1.6-1.6-2.7c0-0.5,0.1-1,0.4-1.5c0.4-1,1.3-1.6,2.4-1.6c0.6,0,1.3,0.1,1.9,0.5
		c2.1,1,5.1,1.8,7.8,1.8c3.1,0,5-1.3,6.4-6.1c1.2-4.1,2.1-11.2,2.1-17.8c0-8.2-2.1-11-9.1-11c-2.5,0-4.5,0.1-6.4,0.3
		c-1.2,4.3-2.5,8.7-4,13c-3.5,10-7.5,18.9-12,26.3c-0.7,1.3-1.8,1.9-2.7,1.9c-0.6,0-1.2-0.2-1.7-0.5c-1-0.6-1.6-1.6-1.6-2.6
		c0-0.7,0.2-1.3,0.6-1.9c4.4-7.1,8.4-15.5,11.8-24.9c1.2-3.5,2.4-7,3.4-10.7c-3.8,0.3-9,1-13.2,1.6c-0.2,0.1-0.4,0.1-0.7,0.1
		c-1.3,0-2.3-0.8-2.5-2.4c-0.1-0.2-0.1-0.4-0.1-0.6c0-1.4,1-2.5,2.5-2.7c4.4-0.7,10.6-1.4,15.4-1.8C437.1,85,437.9,80.4,438.5,75.9z
		 M464.1,86.6c0-1,0.6-2,1.6-2.5c0.5-0.3,1.1-0.4,1.6-0.4c1,0,2,0.4,2.7,1.3c5.5,7.3,10.8,17.9,13.3,26.3c0.1,0.4,0.2,0.9,0.2,1.3
		c0,1.3-0.7,2.3-1.9,2.7c-0.5,0.1-1,0.3-1.4,0.3c-1.3,0-2.4-0.7-2.8-2.3c-2.6-7.9-7.3-18-12.8-25.2
		C464.3,87.6,464.1,87.1,464.1,86.6z M471.4,73.6c0.8,0,1.3,0.2,1.9,0.8c2.3,2.3,5,5.8,6.4,8.3c0.2,0.4,0.5,1,0.5,1.9
		c0,1.1-1,2.1-2.4,2.1c-0.9,0-1.5-0.4-1.9-1.3c-1.6-2.7-3.8-5.8-5.8-8.1c-0.4-0.5-0.7-1.1-0.7-1.8C469.3,74.6,470.2,73.6,471.4,73.6
		z M479.5,68.8c0.8,0,1.3,0.3,2,0.9c1.9,1.9,4.7,5.7,6.1,8.1c0.2,0.4,0.4,1,0.4,1.9c0,0.9-0.9,2.1-2.3,2.1c-0.9,0-1.4-0.4-1.9-1.2
		c-1.6-2.8-3.6-5.7-5.6-7.8c-0.7-0.7-0.9-1-0.9-1.9C477.4,69.8,478.5,68.8,479.5,68.8z"/>
	<path d="M534.3,111.9c-1.9,6.4-6.4,8.6-12.3,8.6c-7.7,0-13.2-5.3-13.2-12.7c0-7.8,6.1-13.2,14.6-13.2c3.6,0,6.7,1.2,8.8,3.4
		c-0.1-2.7-0.1-6.4-0.1-9.9c-10.9,0.2-22.2,0.7-32.9,1.3c-0.1,0-0.2,0-0.3,0c-1.7,0-2.7-1.2-2.7-2.9c0-0.1,0-0.1,0-0.1
		c0-1.6,1-2.7,2.7-2.8c10.4-0.6,22-1,33.2-1.2c0-2.6-0.1-5.2-0.1-7.4c0-1.6,1-2.7,2.8-2.7c2.1,0,3.1,0.9,3.1,2.8c0,2.1,0,4.5,0,7.2
		c4-0.1,7.9-0.1,11.7-0.1c2.7,0,5.3,0,7.8,0.1c2,0,3,1,3,3c0,0.1,0,0.1,0,0.2c0,1.8-1,2.6-2.7,2.6c-4.4-0.1-9-0.1-13.8-0.1
		c-2,0-4,0-6.1,0.1c0,5,0,10.2,0,15.3c1.5,3,2.1,6.2,2.1,9.7c0,9.6-4.1,15.8-12,20c-3.3,1.8-7.3,3.1-11.8,3.9
		c-0.2,0.1-0.4,0.1-0.7,0.1c-1.5,0-2.7-0.8-3-2.4c-0.1-0.3-0.1-0.6-0.1-0.8c0-1.6,0.9-2.7,2.4-3c13.2-2.4,19.8-8.7,19.8-17.4v-1.4
		H534.3z M523.8,99.6c-5,0-8.9,3.3-8.9,8c0,5,3.4,7.5,8.1,7.5c5.2,0,8.7-3.6,8.7-8.9C531.7,102.2,528.5,99.6,523.8,99.6z"/>
</g>
<g>
	<g>
		<defs>
			<rect id="SVGID_1_" x="22.2" y="75.3" width="82.8" height="118.7"/>
		</defs>
		<clipPath id="SVGID_2_">
			<use xlink:href="#SVGID_1_"  style="overflow:visible;"/>
		</clipPath>
		<path class="st1" d="M102.2,206.7l-33.2,62c-1.4,1.4-3.2,2-5,2h0h0h0c-1.8,0-3.6-0.7-5-2l-33.2-62c-1.4-1.4-2-3.2-2-5
			c0-1.8,0.7-3.6,2-5c0,0,25-54.7,25.4-56.6c0.4-2.2-0.9-3.5-2.2-4.6l0,0l-0.1,0c-7.2-4.9-11.9-13-11.9-22.3c0-7.5,3-14.2,7.9-19.1
			c4.9-4.9,11.6-7.9,19-7.9l0.1,0l0.1,0c7.4,0,14.2,3,19,7.9C88,99,91,105.7,91,113.2c0,9.3-4.7,17.5-11.9,22.3l0,0l-0.1,0
			c-1.4,1.1-2.9,2.8-2.2,4.6c0.6,1.7,25.4,56.6,25.4,56.6c1.4,1.4,2,3.2,2.1,5C104.2,203.6,103.5,205.4,102.2,206.7z"/>
		<path class="st2" d="M104.4,194.6c0,0-24.5-53.5-24.5-54.3c0-0.9,0.4-1.7,1-2.2c7.9-5.4,13.2-14.5,13.2-24.8
			c0-16.6-13.5-30.1-30.1-30.1h0h0h0c-16.6,0-30.1,13.5-30.1,30.1c0,10.3,5.2,19.4,13.2,24.8c0.6,0.5,1,1.3,1,2.2
			c0,0.9-24.5,54.3-24.5,54.3c-2,2-3,4.6-3,7.2c0,2.6,1,5.2,3,7.2l33.2,62c2,2,4.6,3,7.2,3H64c2.6,0,5.2-1,7.2-3l33.2-62
			c2-2,3-4.6,3-7.2C107.3,199.1,106.4,196.5,104.4,194.6z M102.2,206.7l-33.2,62c-1.4,1.4-3.2,2-5,2h0h0h0c-1.8,0-3.6-0.7-5-2
			l-33.2-62c-1.4-1.4-2-3.2-2-5c0-1.8,0.7-3.6,2-5c0,0,25-54.7,25.4-56.6c0.4-2.2-0.9-3.5-2.2-4.6l0,0l-0.1,0
			c-7.2-4.9-11.9-13-11.9-22.3c0-7.5,3-14.2,7.9-19.1c4.9-4.9,11.6-7.9,19-7.9l0.1,0l0.1,0c7.4,0,14.2,3,19,7.9
			C88,99,91,105.7,91,113.2c0,9.3-4.7,17.5-11.9,22.3l0,0l-0.1,0c-1.4,1.1-2.9,2.8-2.2,4.6c0.6,1.7,25.4,56.6,25.4,56.6
			c1.4,1.4,2,3.2,2.1,5C104.2,203.6,103.5,205.4,102.2,206.7z"/>
		<path class="st3" d="M61.6,114.6c0,1.3-1,2.3-2.3,2.3c-1.3,0-2.3-1-2.3-2.3c0-1.3,1-2.3,2.3-2.3C60.5,112.3,61.6,113.4,61.6,114.6
			"/>
		<path class="st4" d="M64.7,122.7c0,0.2,0,0.5,0.1,0.7c0.3,2.2,2.2,3.9,4.5,3.9c2.5,0,4.6-2,4.6-4.6H64.7"/>
		<path class="st3" d="M71.5,114.6c0,1.3-1,2.3-2.3,2.3c-1.3,0-2.3-1-2.3-2.3c0-1.3,1-2.3,2.3-2.3C70.5,112.3,71.5,113.4,71.5,114.6
			"/>
		<path class="st3" d="M81.5,114.6c0,1.3-1,2.3-2.3,2.3c-1.3,0-2.3-1-2.3-2.3c0-1.3,1-2.3,2.3-2.3C80.5,112.3,81.5,113.4,81.5,114.6
			"/>
	</g>
</g>
</svg>
